# xmcd
#
# Track frame offsets:
# 183
# 12520
# 25958
# 38550
# 53283
# 63500
# 77088
# 89940
# 101748
# 113628
# 126528
# 139255
# 151988
# 163008
# 174725
# 185975
# 196465
# 208013
#
# Disc length: 3005 seconds
#
#
# Revision: 3
# Processed by: cddbd v1.5.2PL0 Copyright (c) Steve Scherf et al.
# Submitted via: FreeRIP 2.951 
#
DISCID=060bbb12
DTITLE=John Lee Hooker - Boogie Chillen
DYEAR=1993
DGENRE=Blues
TTITLE0=High Priced Woman
TTITLE1=Ground Hog Blues
TTITLE2=Walkin' The Boogie
TTITLE3=Sugar Mama
TTITLE4=Dimpless
TTITLE5=Time Is Marching
TTITLE6=I'm So Excited
TTITLE7=Little Wheel
TTITLE8=I Love You Honey
TTITLE9=Hobo Blues
TTITLE10=Crawling King Snake
TTITLE11=I'm In The Mood
TTITLE12=Maudie
TTITLE13=Boogie Chillen
TTITLE14=No Shoes
TTITLE15=Dusty Road
TTITLE16=Boom Boom
TTITLE17=Blues Before Sunrise
EXTD=
EXTT0=
EXTT1=
EXTT2=
EXTT3=
EXTT4=
EXTT5=
EXTT6=
EXTT7=
EXTT8=
EXTT9=
EXTT10=
EXTT11=
EXTT12=
EXTT13=
EXTT14=
EXTT15=
EXTT16=
EXTT17=
PLAYORDER=
